<mxfile host="app.diagrams.net" agent="Mozilla/5.0 (Windows NT 10.0; Win64; x64) AppleWebKit/537.36 (KHTML, like Gecko) Chrome/140.0.0.0 Safari/537.36" version="28.2.5">
  <diagram id="XIP6_qOdMlYOlldbtScc" name="Страница 1">
    <mxGraphModel dx="719" dy="393" grid="0" gridSize="10" guides="1" tooltips="1" connect="1" arrows="1" fold="1" page="1" pageScale="1" pageWidth="827" pageHeight="1169" math="0" shadow="0">
      <root>
        <mxCell id="0" />
        <mxCell id="1" parent="0" />
        <mxCell id="13" style="edgeStyle=elbowEdgeStyle;html=1;exitX=0.995;exitY=0.685;exitDx=0;exitDy=0;entryX=0;entryY=0.5;entryDx=0;entryDy=0;fontFamily=Lucida Console;fontSize=18;exitPerimeter=0;strokeWidth=2;" parent="1" source="2" target="9" edge="1">
          <mxGeometry relative="1" as="geometry">
            <Array as="points" />
          </mxGeometry>
        </mxCell>
        <mxCell id="2" value="&lt;font style=&quot;font-size: 18px;&quot; face=&quot;Lucida Console&quot;&gt;Start&lt;/font&gt;" style="rounded=1;whiteSpace=wrap;html=1;strokeWidth=2;" parent="1" vertex="1">
          <mxGeometry x="28" y="130" width="100" height="40" as="geometry" />
        </mxCell>
        <mxCell id="sDZXyx4UTGT1CRIrB_rS-41" style="edgeStyle=elbowEdgeStyle;rounded=1;orthogonalLoop=1;jettySize=auto;html=1;entryX=0.25;entryY=0;entryDx=0;entryDy=0;elbow=vertical;strokeWidth=2;strokeColor=light-dark(#000000,#589916);exitX=0;exitY=0.5;exitDx=0;exitDy=0;" edge="1" parent="1" source="3" target="4">
          <mxGeometry relative="1" as="geometry">
            <Array as="points">
              <mxPoint x="266" y="32" />
            </Array>
          </mxGeometry>
        </mxCell>
        <mxCell id="3" value="&lt;font style=&quot;font-size: 18px;&quot; face=&quot;Lucida Console&quot;&gt;Spawn&lt;/font&gt;" style="rounded=1;whiteSpace=wrap;html=1;strokeColor=#4D9900;strokeWidth=2;" parent="1" vertex="1">
          <mxGeometry x="317" y="12" width="102" height="40" as="geometry" />
        </mxCell>
        <mxCell id="16" style="edgeStyle=elbowEdgeStyle;html=1;exitX=0.75;exitY=1;exitDx=0;exitDy=0;fontFamily=Lucida Console;fontSize=18;fillColor=#0050ef;strokeColor=light-dark(#004C99,#3333FF);strokeWidth=2;entryX=0.5;entryY=1;entryDx=0;entryDy=0;" parent="1" source="4" target="5" edge="1">
          <mxGeometry relative="1" as="geometry">
            <mxPoint x="329" y="155" as="targetPoint" />
            <Array as="points">
              <mxPoint x="325" y="195" />
            </Array>
          </mxGeometry>
        </mxCell>
        <mxCell id="17" style="edgeStyle=elbowEdgeStyle;html=1;exitX=0.5;exitY=1;exitDx=0;exitDy=0;entryX=0.75;entryY=0;entryDx=0;entryDy=0;fontFamily=Lucida Console;fontSize=18;fillColor=#0050ef;strokeColor=light-dark(#004C99,#3333FF);strokeWidth=2;elbow=vertical;" parent="1" source="4" target="8" edge="1">
          <mxGeometry relative="1" as="geometry">
            <Array as="points">
              <mxPoint x="330" y="217" />
            </Array>
          </mxGeometry>
        </mxCell>
        <mxCell id="27" style="edgeStyle=elbowEdgeStyle;html=1;fontFamily=Lucida Console;fontSize=18;strokeColor=light-dark(#004C99,#3333FF);strokeWidth=2;elbow=vertical;entryX=0.5;entryY=0;entryDx=0;entryDy=0;exitX=0.127;exitY=1.004;exitDx=0;exitDy=0;exitPerimeter=0;" parent="1" source="4" target="9" edge="1">
          <mxGeometry relative="1" as="geometry">
            <Array as="points">
              <mxPoint x="215" y="245" />
              <mxPoint x="303" y="269" />
              <mxPoint x="263" y="224" />
            </Array>
            <mxPoint x="236" y="257" as="targetPoint" />
            <mxPoint x="299" y="164" as="sourcePoint" />
          </mxGeometry>
        </mxCell>
        <mxCell id="4" value="&lt;font style=&quot;font-size: 18px;&quot; face=&quot;Lucida Console&quot;&gt;Moving&lt;/font&gt;" style="rounded=1;whiteSpace=wrap;html=1;strokeColor=light-dark(#004C99,#3333FF);strokeWidth=2;" parent="1" vertex="1">
          <mxGeometry x="206" y="130" width="100" height="40" as="geometry" />
        </mxCell>
        <mxCell id="19" style="edgeStyle=elbowEdgeStyle;html=1;exitX=1;exitY=0.25;exitDx=0;exitDy=0;fontFamily=Lucida Console;fontSize=18;strokeWidth=2;strokeColor=light-dark(#000000,#6600CC);entryX=1;entryY=0.5;entryDx=0;entryDy=0;elbow=vertical;" parent="1" source="5" target="3" edge="1">
          <mxGeometry relative="1" as="geometry">
            <mxPoint x="687" y="103" as="targetPoint" />
            <Array as="points">
              <mxPoint x="515" y="84" />
            </Array>
          </mxGeometry>
        </mxCell>
        <mxCell id="39" value="" style="edgeStyle=elbowEdgeStyle;html=1;entryX=0.75;entryY=0;entryDx=0;entryDy=0;exitX=0.5;exitY=0;exitDx=0;exitDy=0;elbow=vertical;strokeColor=light-dark(#000000,#6600CC);strokeWidth=2;" parent="1" source="5" target="4" edge="1">
          <mxGeometry relative="1" as="geometry">
            <mxPoint x="475.986301369863" y="55" as="targetPoint" />
            <Array as="points">
              <mxPoint x="332" y="97" />
            </Array>
          </mxGeometry>
        </mxCell>
        <mxCell id="5" value="&lt;font style=&quot;font-size: 18px;&quot; face=&quot;Lucida Console&quot;&gt;Shifting&lt;/font&gt;" style="rounded=1;whiteSpace=wrap;html=1;strokeWidth=2;strokeColor=light-dark(#CCCC00,#6600CC);" parent="1" vertex="1">
          <mxGeometry x="392" y="125" width="110" height="40" as="geometry" />
        </mxCell>
        <mxCell id="26" style="edgeStyle=orthogonalEdgeStyle;html=1;exitX=0.5;exitY=1;exitDx=0;exitDy=0;fontFamily=Lucida Console;fontSize=18;elbow=vertical;strokeWidth=2;strokeColor=#6600CC;entryX=0.5;entryY=1;entryDx=0;entryDy=0;" parent="1" source="7" edge="1" target="2">
          <mxGeometry relative="1" as="geometry">
            <Array as="points">
              <mxPoint x="613" y="314" />
              <mxPoint x="613" y="339" />
              <mxPoint x="78" y="339" />
            </Array>
            <mxPoint x="211" y="214" as="targetPoint" />
          </mxGeometry>
        </mxCell>
        <mxCell id="sDZXyx4UTGT1CRIrB_rS-42" style="edgeStyle=elbowEdgeStyle;rounded=1;orthogonalLoop=1;jettySize=auto;html=1;entryX=0.5;entryY=0;entryDx=0;entryDy=0;elbow=vertical;strokeWidth=2;strokeColor=light-dark(#000000,#FF3333);" edge="1" parent="1" source="6" target="7">
          <mxGeometry relative="1" as="geometry" />
        </mxCell>
        <mxCell id="6" value="&lt;font style=&quot;font-size: 18px;&quot; face=&quot;Lucida Console&quot;&gt;Colliding&lt;/font&gt;" style="rounded=1;whiteSpace=wrap;html=1;strokeColor=light-dark(#6600CC,#FF3333);strokeWidth=2;" parent="1" vertex="1">
          <mxGeometry x="549" y="130" width="124" height="40" as="geometry" />
        </mxCell>
        <mxCell id="7" value="&lt;font style=&quot;font-size: 18px;&quot; face=&quot;Lucida Console&quot;&gt;Game Over&lt;/font&gt;" style="rounded=1;whiteSpace=wrap;html=1;strokeColor=#CC0066;strokeWidth=2;" parent="1" vertex="1">
          <mxGeometry x="556" y="274" width="110" height="40" as="geometry" />
        </mxCell>
        <mxCell id="24" style="edgeStyle=elbowEdgeStyle;html=1;fontFamily=Lucida Console;fontSize=18;elbow=vertical;strokeColor=#009999;strokeWidth=2;exitX=0.25;exitY=0;exitDx=0;exitDy=0;entryX=0.367;entryY=1.004;entryDx=0;entryDy=0;entryPerimeter=0;" parent="1" source="8" target="4" edge="1">
          <mxGeometry relative="1" as="geometry">
            <mxPoint x="226" y="175" as="targetPoint" />
            <mxPoint x="429" y="258" as="sourcePoint" />
            <Array as="points">
              <mxPoint x="287" y="241" />
              <mxPoint x="329" y="210" />
              <mxPoint x="329" y="180" />
            </Array>
          </mxGeometry>
        </mxCell>
        <mxCell id="31" style="edgeStyle=elbowEdgeStyle;html=1;exitX=0;exitY=0.5;exitDx=0;exitDy=0;entryX=1;entryY=0.5;entryDx=0;entryDy=0;fontFamily=Lucida Console;fontSize=18;strokeColor=#009999;strokeWidth=2;" parent="1" source="8" target="9" edge="1">
          <mxGeometry relative="1" as="geometry">
            <Array as="points">
              <mxPoint x="308" y="300" />
              <mxPoint x="669" y="340" />
            </Array>
          </mxGeometry>
        </mxCell>
        <mxCell id="8" value="&lt;font style=&quot;font-size: 18px;&quot; face=&quot;Lucida Console&quot;&gt;Pause&lt;/font&gt;" style="rounded=1;whiteSpace=wrap;html=1;strokeColor=#009999;strokeWidth=2;" parent="1" vertex="1">
          <mxGeometry x="330" y="266" width="110" height="40" as="geometry" />
        </mxCell>
        <mxCell id="9" value="&lt;font style=&quot;font-size: 18px;&quot; face=&quot;Lucida Console&quot;&gt;Exit state&lt;/font&gt;" style="rounded=1;whiteSpace=wrap;html=1;strokeWidth=2;strokeColor=#CC6600;" parent="1" vertex="1">
          <mxGeometry x="159" y="280" width="120" height="40" as="geometry" />
        </mxCell>
        <mxCell id="12" value="" style="edgeStyle=none;html=1;fontFamily=Lucida Console;fontSize=18;strokeWidth=2;entryX=0;entryY=0.5;entryDx=0;entryDy=0;" parent="1" source="2" target="4" edge="1">
          <mxGeometry relative="1" as="geometry">
            <Array as="points">
              <mxPoint x="149" y="150" />
            </Array>
            <mxPoint x="184" y="150" as="targetPoint" />
          </mxGeometry>
        </mxCell>
        <mxCell id="32" style="edgeStyle=elbowEdgeStyle;html=1;fontFamily=Lucida Console;fontSize=18;fillColor=#0050ef;strokeColor=light-dark(#004C99,#3333FF);strokeWidth=2;entryX=0.5;entryY=0;entryDx=0;entryDy=0;elbow=vertical;exitX=0.5;exitY=0;exitDx=0;exitDy=0;" parent="1" target="6" edge="1" source="4">
          <mxGeometry relative="1" as="geometry">
            <mxPoint x="336" y="147" as="sourcePoint" />
            <mxPoint x="496" y="95" as="targetPoint" />
            <Array as="points">
              <mxPoint x="450" y="77" />
            </Array>
          </mxGeometry>
        </mxCell>
      </root>
    </mxGraphModel>
  </diagram>
</mxfile>
